<svg id="svg" version="1.1" xmlns="http://www.w3.org/2000/svg" xmlns:xlink="http://www.w3.org/1999/xlink" width="400" height="400" viewBox="0, 0, 400,400"><g id="svgg"><path id="path0" d="M19.600 0.400 C 19.600 0.620,19.347 0.800,19.037 0.800 C 18.304 0.800,13.200 5.904,13.200 6.637 C 13.200 6.947,12.949 7.200,12.643 7.200 C 11.874 7.200,11.600 8.097,11.600 10.613 C 11.600 12.242,11.431 12.855,10.900 13.152 C 9.810 13.762,9.810 386.238,10.900 386.848 C 11.431 387.145,11.600 387.758,11.600 389.387 C 11.600 391.903,11.874 392.800,12.643 392.800 C 12.949 392.800,13.200 393.062,13.200 393.382 C 13.200 393.702,13.605 394.399,14.100 394.932 C 14.595 395.464,15.664 396.642,16.476 397.550 C 17.301 398.471,18.316 399.200,18.776 399.200 C 19.229 399.200,19.600 399.380,19.600 399.600 C 19.600 399.859,24.533 400.000,33.600 400.000 C 42.667 400.000,47.600 399.859,47.600 399.600 C 47.600 399.380,47.960 399.200,48.400 399.200 C 48.933 399.200,49.200 398.933,49.200 398.400 C 49.200 397.867,49.467 397.600,50.000 397.600 C 50.533 397.600,50.800 397.333,50.800 396.800 C 50.800 396.267,51.067 396.000,51.600 396.000 C 52.133 396.000,52.400 395.733,52.400 395.200 C 52.400 394.667,52.667 394.400,53.200 394.400 C 53.675 394.400,54.000 394.133,54.000 393.744 C 54.000 393.383,54.282 392.882,54.627 392.630 C 54.971 392.378,55.358 391.386,55.487 390.425 C 55.616 389.464,56.054 388.346,56.461 387.939 C 57.127 387.273,57.200 386.463,57.200 379.771 C 57.200 373.702,57.310 372.233,57.800 371.743 C 58.325 371.218,58.400 366.525,58.400 334.386 C 58.400 298.038,58.409 297.623,59.200 297.200 C 59.880 296.836,60.000 296.362,60.000 294.048 C 60.000 291.832,60.149 291.189,60.800 290.600 C 61.240 290.202,61.600 289.544,61.600 289.138 C 61.600 288.624,61.894 288.400,62.567 288.400 C 63.948 288.400,64.800 288.002,64.800 287.357 C 64.800 287.051,65.160 286.800,65.600 286.800 C 66.133 286.800,66.400 286.533,66.400 286.000 C 66.400 285.336,66.667 285.200,67.973 285.200 C 69.195 285.200,69.603 285.021,69.800 284.400 C 69.989 283.805,70.405 283.600,71.424 283.600 C 72.360 283.600,72.951 283.347,73.293 282.800 C 73.626 282.267,74.226 282.000,75.093 282.000 C 75.960 282.000,76.560 281.733,76.893 281.200 C 77.249 280.630,77.826 280.400,78.896 280.400 C 80.133 280.400,80.400 280.258,80.400 279.600 C 80.400 278.895,80.667 278.800,82.637 278.800 C 84.538 278.800,84.906 278.680,85.084 278.000 C 85.261 277.323,85.630 277.200,87.484 277.200 C 89.338 277.200,89.707 277.077,89.884 276.400 C 90.068 275.697,90.430 275.600,92.859 275.600 C 94.949 275.600,95.681 275.453,95.855 275.000 C 96.029 274.547,96.759 274.400,98.827 274.400 C 101.009 274.400,101.715 274.244,102.284 273.636 C 102.919 272.959,103.720 272.856,109.333 272.736 C 114.804 272.618,115.735 272.505,116.177 271.900 C 116.643 271.262,117.679 271.200,127.813 271.200 C 137.846 271.200,139.013 271.269,139.710 271.900 C 140.358 272.487,141.457 272.622,146.541 272.735 C 151.489 272.845,152.736 272.992,153.341 273.534 C 153.865 274.003,155.029 274.241,157.315 274.345 C 159.364 274.438,160.752 274.695,161.103 275.046 C 161.448 275.391,162.534 275.600,163.982 275.600 C 165.970 275.600,166.337 275.716,166.516 276.400 C 166.694 277.080,167.062 277.200,168.963 277.200 C 170.667 277.200,171.391 277.391,172.000 278.000 C 172.604 278.604,173.333 278.800,174.973 278.800 C 176.795 278.800,177.187 278.929,177.400 279.600 C 177.612 280.268,178.005 280.400,179.780 280.400 C 181.570 280.400,181.940 280.527,182.116 281.200 C 182.294 281.880,182.662 282.000,184.563 282.000 C 186.533 282.000,186.800 282.095,186.800 282.800 C 186.800 283.453,187.067 283.600,188.256 283.600 C 189.140 283.600,189.899 283.856,190.189 284.252 C 190.478 284.648,191.464 284.981,192.699 285.100 C 194.254 285.249,194.778 285.472,194.928 286.048 C 195.088 286.657,195.503 286.800,197.116 286.800 C 198.770 286.800,199.142 286.935,199.316 287.600 C 199.471 288.194,199.862 288.400,200.831 288.400 C 201.549 288.400,202.459 288.691,202.852 289.047 C 203.246 289.403,204.385 289.787,205.384 289.899 C 206.472 290.022,207.200 290.307,207.200 290.609 C 207.200 291.211,208.089 291.600,209.461 291.600 C 210.009 291.600,210.727 291.870,211.057 292.200 C 211.387 292.530,212.343 292.800,213.182 292.800 C 214.370 292.800,214.753 292.976,214.916 293.600 C 215.076 294.213,215.462 294.400,216.563 294.400 C 217.467 294.400,218.297 294.697,218.800 295.200 C 219.333 295.733,220.133 296.000,221.200 296.000 C 222.533 296.000,222.800 296.133,222.800 296.800 C 222.800 297.501,223.067 297.600,224.953 297.600 C 226.770 297.600,227.139 297.725,227.316 298.400 C 227.482 299.036,227.862 299.200,229.163 299.200 C 230.296 299.200,230.800 299.372,230.800 299.757 C 230.800 300.477,231.678 300.800,233.633 300.800 C 234.706 300.800,235.200 300.976,235.200 301.357 C 235.200 302.091,236.084 302.400,238.186 302.400 C 239.570 302.400,239.948 302.556,240.116 303.200 C 240.289 303.861,240.662 304.000,242.266 304.000 C 243.774 304.000,244.319 304.179,244.707 304.800 C 245.098 305.426,245.640 305.600,247.203 305.600 C 248.637 305.600,249.200 305.756,249.200 306.153 C 249.200 306.806,250.412 307.187,252.513 307.195 C 253.484 307.198,254.107 307.415,254.255 307.800 C 254.431 308.258,255.183 308.400,257.443 308.400 C 259.704 308.400,260.400 308.531,260.400 308.957 C 260.400 309.868,261.357 310.000,267.986 310.000 C 273.970 310.000,274.318 310.043,274.516 310.800 C 274.720 311.580,275.062 311.600,288.200 311.600 C 301.338 311.600,301.680 311.580,301.884 310.800 C 302.083 310.038,302.430 310.000,309.084 310.000 C 315.738 310.000,316.085 309.962,316.284 309.200 C 316.470 308.491,316.830 308.400,319.459 308.400 C 321.727 308.400,322.479 308.259,322.655 307.800 C 322.821 307.369,323.494 307.200,325.043 307.200 C 326.667 307.200,327.398 307.002,328.000 306.400 C 328.503 305.897,329.333 305.600,330.237 305.600 C 331.338 305.600,331.724 305.413,331.884 304.800 C 332.053 304.153,332.430 304.000,333.851 304.000 C 335.113 304.000,335.801 303.775,336.293 303.200 C 336.716 302.705,337.473 302.400,338.275 302.400 C 339.162 302.400,339.707 302.147,340.000 301.600 C 340.299 301.042,340.838 300.800,341.781 300.800 C 343.530 300.800,344.400 300.454,344.400 299.757 C 344.400 299.384,344.875 299.200,345.837 299.200 C 346.938 299.200,347.324 299.013,347.484 298.400 C 347.643 297.794,348.030 297.600,349.084 297.600 C 350.138 297.600,350.525 297.406,350.684 296.800 C 350.843 296.194,351.230 296.000,352.284 296.000 C 353.338 296.000,353.725 295.806,353.884 295.200 C 354.040 294.603,354.430 294.400,355.420 294.400 C 356.327 294.400,356.820 294.179,356.980 293.700 C 357.187 293.083,358.759 292.185,360.900 291.462 C 361.285 291.332,361.600 290.969,361.600 290.657 C 361.600 290.325,362.181 289.980,363.000 289.826 C 363.770 289.682,364.400 289.387,364.400 289.172 C 364.400 288.956,364.850 288.609,365.400 288.400 C 365.950 288.191,366.400 287.745,366.400 287.410 C 366.400 287.029,366.769 286.800,367.384 286.800 C 367.926 286.800,368.691 286.469,369.084 286.064 C 369.478 285.659,370.115 285.215,370.500 285.077 C 370.885 284.938,371.200 284.549,371.200 284.213 C 371.200 283.876,371.487 283.600,371.837 283.600 C 372.188 283.600,372.569 283.240,372.684 282.800 C 372.799 282.360,373.159 282.000,373.484 282.000 C 373.809 282.000,374.169 281.640,374.284 281.200 C 374.399 280.760,374.742 280.400,375.047 280.400 C 375.351 280.400,375.600 280.040,375.600 279.600 C 375.600 279.160,375.856 278.800,376.168 278.800 C 376.791 278.800,380.400 275.362,380.400 274.768 C 380.400 274.566,380.687 274.400,381.037 274.400 C 381.388 274.400,381.769 274.040,381.884 273.600 C 381.999 273.160,382.359 272.800,382.684 272.800 C 383.009 272.800,383.369 272.440,383.484 272.000 C 383.599 271.560,383.948 271.200,384.259 271.200 C 384.570 271.200,384.943 270.885,385.086 270.500 C 385.230 270.115,385.674 269.565,386.074 269.277 C 386.481 268.984,386.800 268.258,386.800 267.624 C 386.800 266.830,387.038 266.431,387.600 266.284 C 388.293 266.103,388.400 265.738,388.400 263.569 C 388.400 261.744,388.590 260.853,389.100 260.289 C 390.189 259.086,390.189 37.820,389.100 37.024 C 388.588 36.649,388.400 35.950,388.400 34.418 C 388.400 32.662,388.271 32.291,387.600 32.116 C 387.150 31.998,386.800 31.570,386.800 31.137 C 386.800 30.205,383.679 27.212,382.700 27.205 C 382.315 27.202,382.000 26.959,382.000 26.664 C 382.000 26.370,381.550 25.923,381.000 25.673 C 380.450 25.422,380.000 25.033,380.000 24.809 C 380.000 24.542,376.795 24.400,370.800 24.400 C 363.217 24.400,361.600 24.498,361.600 24.955 C 361.600 25.274,361.002 25.623,360.200 25.774 C 359.425 25.919,358.800 26.276,358.800 26.574 C 358.800 26.871,358.175 27.228,357.400 27.374 C 356.630 27.518,356.000 27.813,356.000 28.028 C 356.000 28.244,355.550 28.591,355.000 28.800 C 354.450 29.009,354.000 29.455,354.000 29.790 C 354.000 30.133,353.650 30.400,353.200 30.400 C 352.667 30.400,352.400 30.667,352.400 31.200 C 352.400 31.733,352.133 32.000,351.600 32.000 C 351.067 32.000,350.800 32.267,350.800 32.800 C 350.800 33.297,350.533 33.600,350.096 33.600 C 349.709 33.600,349.168 33.960,348.893 34.400 C 348.603 34.865,347.960 35.200,347.359 35.200 C 346.662 35.200,346.257 35.460,346.116 36.000 C 346.000 36.443,345.570 36.800,345.153 36.800 C 344.667 36.800,344.400 37.083,344.400 37.600 C 344.400 38.248,344.133 38.400,343.000 38.400 C 341.867 38.400,341.600 38.552,341.600 39.200 C 341.600 39.733,341.333 40.000,340.800 40.000 C 340.267 40.000,340.000 40.267,340.000 40.800 C 340.000 41.467,339.733 41.600,338.400 41.600 C 337.244 41.600,336.800 41.767,336.800 42.200 C 336.800 42.568,336.426 42.800,335.833 42.800 C 334.452 42.800,333.600 43.198,333.600 43.843 C 333.600 44.237,333.071 44.400,331.796 44.400 C 330.487 44.400,329.804 44.620,329.307 45.200 C 328.897 45.680,328.127 46.000,327.387 46.000 C 326.704 46.000,325.767 46.358,325.292 46.800 C 324.695 47.357,323.881 47.600,322.617 47.600 C 321.333 47.600,320.565 47.835,320.000 48.400 C 319.409 48.991,318.667 49.200,317.163 49.200 C 315.462 49.200,315.091 49.332,314.916 50.000 C 314.723 50.739,314.370 50.800,310.316 50.800 C 306.262 50.800,305.909 50.861,305.716 51.600 C 305.522 52.343,305.170 52.400,300.815 52.400 C 296.632 52.400,296.046 52.487,295.400 53.200 C 294.267 54.452,265.012 54.452,264.684 53.200 C 264.495 52.479,264.138 52.400,261.052 52.400 C 258.038 52.400,257.577 52.304,257.200 51.600 C 256.854 50.953,256.362 50.800,254.633 50.800 C 252.830 50.800,252.460 50.674,252.284 50.000 C 252.106 49.320,251.738 49.200,249.837 49.200 C 248.192 49.200,247.600 49.053,247.600 48.643 C 247.600 47.904,246.714 47.600,244.567 47.600 C 243.329 47.600,242.800 47.434,242.800 47.047 C 242.800 46.422,241.603 46.014,239.747 46.005 C 238.832 46.001,238.437 45.784,238.284 45.200 C 238.124 44.587,237.738 44.400,236.637 44.400 C 235.654 44.400,235.200 44.218,235.200 43.825 C 235.200 43.450,234.580 43.156,233.427 42.983 C 232.452 42.837,231.557 42.466,231.439 42.159 C 231.295 41.783,230.566 41.600,229.213 41.600 C 227.467 41.600,227.200 41.494,227.200 40.800 C 227.200 40.133,226.933 40.000,225.600 40.000 C 224.267 40.000,224.000 39.867,224.000 39.200 C 224.000 38.548,223.733 38.400,222.563 38.400 C 221.462 38.400,221.076 38.213,220.916 37.600 C 220.762 37.013,220.370 36.800,219.442 36.800 C 218.673 36.800,217.910 36.487,217.493 36.000 C 217.116 35.560,216.356 35.200,215.804 35.200 C 215.252 35.200,214.440 34.840,214.000 34.400 C 213.467 33.867,212.667 33.600,211.600 33.600 C 210.267 33.600,210.000 33.467,210.000 32.800 C 210.000 32.155,209.733 32.000,208.627 32.000 C 207.605 32.000,207.189 31.795,207.000 31.200 C 206.813 30.612,206.395 30.400,205.420 30.400 C 204.430 30.400,204.040 30.197,203.884 29.600 C 203.725 28.993,203.338 28.800,202.280 28.800 C 201.417 28.800,200.799 28.574,200.658 28.207 C 200.533 27.881,199.707 27.499,198.823 27.357 C 197.939 27.216,197.017 26.861,196.775 26.570 C 196.533 26.278,195.539 25.920,194.567 25.774 C 193.455 25.607,192.800 25.304,192.800 24.955 C 192.800 24.580,192.310 24.400,191.289 24.400 C 190.273 24.400,189.553 24.138,189.093 23.600 C 188.623 23.051,187.913 22.800,186.831 22.800 C 185.605 22.800,185.197 22.622,185.000 22.000 C 184.788 21.332,184.395 21.200,182.620 21.200 C 180.830 21.200,180.460 21.073,180.284 20.400 C 180.108 19.725,179.738 19.600,177.926 19.600 C 176.273 19.600,175.620 19.416,175.093 18.800 C 174.552 18.168,173.913 18.000,172.051 18.000 C 170.030 18.000,169.663 17.886,169.484 17.200 C 169.298 16.489,168.938 16.400,166.237 16.400 C 163.733 16.400,163.060 16.260,162.400 15.600 C 161.695 14.895,161.067 14.800,157.096 14.800 C 153.026 14.800,152.544 14.723,152.093 14.000 C 151.604 13.218,151.160 13.200,132.011 13.200 C 112.838 13.200,112.419 13.217,112.000 14.000 C 111.602 14.743,111.162 14.800,105.809 14.800 C 100.601 14.800,99.994 14.873,99.513 15.560 C 99.062 16.205,98.358 16.341,94.858 16.460 C 91.499 16.574,90.640 16.730,90.223 17.300 C 89.818 17.855,89.113 18.000,86.818 18.000 C 84.262 18.000,83.901 18.093,83.716 18.800 C 83.532 19.504,83.170 19.600,80.716 19.600 C 78.262 19.600,77.900 19.696,77.716 20.400 C 77.539 21.077,77.170 21.200,75.316 21.200 C 73.462 21.200,73.093 21.323,72.916 22.000 C 72.739 22.677,72.370 22.800,70.516 22.800 C 68.662 22.800,68.293 22.923,68.116 23.600 C 67.952 24.227,67.570 24.400,66.353 24.400 C 65.297 24.400,64.800 24.577,64.800 24.954 C 64.800 25.325,64.075 25.598,62.600 25.783 C 61.089 25.972,60.400 26.236,60.400 26.629 C 60.400 26.971,60.000 27.200,59.400 27.200 L 58.400 27.200 58.400 22.787 C 58.400 19.234,58.283 18.330,57.800 18.145 C 57.355 17.974,57.200 17.267,57.200 15.407 C 57.200 12.144,56.834 10.400,56.150 10.400 C 55.835 10.400,55.600 9.987,55.600 9.433 C 55.600 8.052,55.202 7.200,54.557 7.200 C 54.251 7.200,54.000 6.840,54.000 6.400 C 54.000 5.867,53.733 5.600,53.200 5.600 C 52.667 5.600,52.400 5.333,52.400 4.800 C 52.400 4.267,52.133 4.000,51.600 4.000 C 51.067 4.000,50.800 3.733,50.800 3.200 C 50.800 2.667,50.533 2.400,50.000 2.400 C 49.467 2.400,49.200 2.133,49.200 1.600 C 49.200 1.067,48.933 0.800,48.400 0.800 C 47.960 0.800,47.600 0.620,47.600 0.400 C 47.600 0.141,42.667 0.000,33.600 0.000 C 24.533 0.000,19.600 0.141,19.600 0.400 M41.600 3.962 C 43.038 4.465,44.602 5.471,46.115 6.866 C 48.330 8.908,48.994 9.779,50.026 12.000 C 50.281 12.550,50.774 13.536,51.121 14.190 C 51.598 15.090,51.818 17.237,52.021 22.990 C 52.314 31.277,52.862 33.825,54.599 34.963 C 55.673 35.666,54.944 35.907,64.800 31.588 C 69.048 29.727,72.221 28.549,74.584 27.956 C 75.456 27.737,76.356 27.407,76.584 27.221 C 76.976 26.904,79.096 26.254,83.200 25.193 C 84.190 24.938,86.170 24.382,87.600 23.958 C 89.030 23.535,90.740 23.187,91.400 23.185 C 92.060 23.183,93.938 22.825,95.573 22.391 C 97.208 21.956,99.132 21.600,99.848 21.600 C 100.564 21.600,102.287 21.341,103.675 21.025 C 105.064 20.709,108.630 20.252,111.600 20.009 C 114.570 19.767,118.260 19.404,119.800 19.205 C 128.059 18.132,151.573 19.317,159.000 21.180 C 159.880 21.400,161.140 21.583,161.800 21.585 C 162.460 21.587,164.260 21.964,165.800 22.422 C 167.340 22.881,169.770 23.590,171.200 23.998 C 177.288 25.736,184.842 28.311,185.380 28.832 C 185.589 29.034,186.129 29.202,186.580 29.204 C 187.031 29.206,188.300 29.650,189.400 30.191 C 190.500 30.732,191.610 31.181,191.868 31.187 C 192.125 31.194,192.845 31.461,193.468 31.780 C 194.090 32.100,195.500 32.739,196.600 33.201 C 197.700 33.662,199.320 34.380,200.200 34.794 C 201.080 35.209,203.240 36.207,205.000 37.011 C 206.760 37.815,209.730 39.198,211.600 40.083 C 213.470 40.968,216.620 42.457,218.600 43.393 C 220.580 44.328,223.190 45.496,224.400 45.988 C 226.958 47.028,228.157 47.547,231.275 48.965 C 232.527 49.534,233.727 50.000,233.943 50.000 C 234.159 50.000,234.845 50.261,235.468 50.580 C 237.825 51.789,240.317 52.752,243.800 53.801 C 245.780 54.397,248.120 55.122,249.000 55.411 C 265.221 60.735,279.579 61.537,301.800 58.359 C 304.880 57.919,308.570 57.299,310.000 56.981 C 311.430 56.664,313.500 56.295,314.600 56.162 C 315.700 56.029,317.680 55.597,319.000 55.203 C 320.320 54.809,322.750 54.095,324.400 53.618 C 326.050 53.141,327.940 52.505,328.600 52.205 C 329.260 51.906,330.472 51.454,331.294 51.201 C 332.116 50.948,332.892 50.575,333.018 50.371 C 333.144 50.167,333.645 50.000,334.132 50.000 C 335.315 50.000,342.623 46.266,346.240 43.813 C 348.876 42.025,356.271 36.428,357.200 35.517 C 358.636 34.110,362.316 31.503,364.312 30.478 C 366.633 29.288,374.425 29.183,376.536 30.314 C 380.264 32.313,383.200 35.864,383.200 38.376 C 383.200 39.054,383.512 41.362,383.893 43.504 C 385.252 51.134,384.604 243.074,383.173 257.138 C 382.602 262.742,379.962 267.164,373.611 273.154 C 367.068 279.325,365.570 280.485,357.982 285.252 C 356.102 286.434,354.212 287.622,353.782 287.893 C 353.060 288.349,350.581 289.571,342.200 293.604 C 338.214 295.522,335.218 296.800,334.710 296.800 C 334.496 296.800,333.754 297.057,333.060 297.372 C 332.367 297.687,330.630 298.375,329.200 298.903 C 327.770 299.430,325.970 300.094,325.200 300.379 C 324.430 300.663,322.604 301.212,321.142 301.599 C 319.679 301.985,318.307 302.410,318.092 302.543 C 314.893 304.520,278.427 305.485,267.200 303.890 C 262.463 303.216,258.712 302.358,254.200 300.915 C 253.100 300.563,251.570 300.136,250.800 299.966 C 250.030 299.797,248.140 299.186,246.600 298.610 C 245.060 298.034,242.180 297.019,240.200 296.355 C 236.171 295.004,234.228 294.288,228.991 292.223 C 227.006 291.440,225.226 290.800,225.035 290.800 C 224.844 290.800,223.948 290.464,223.044 290.054 C 218.585 288.031,217.540 287.600,217.089 287.598 C 216.820 287.596,216.122 287.346,215.539 287.041 C 214.955 286.737,213.785 286.264,212.939 285.992 C 212.092 285.719,211.220 285.373,211.000 285.223 C 210.780 285.073,209.250 284.450,207.600 283.838 C 205.950 283.226,204.060 282.478,203.400 282.176 C 202.049 281.557,199.477 280.620,196.800 279.772 C 195.810 279.458,194.640 279.045,194.200 278.854 C 193.760 278.663,192.362 278.130,191.094 277.669 C 189.825 277.207,187.845 276.483,186.694 276.058 C 183.215 274.775,178.979 273.422,173.900 271.971 C 167.329 270.094,165.287 269.536,163.600 269.154 C 162.610 268.929,160.720 268.475,159.400 268.143 C 145.785 264.721,106.711 264.612,97.875 267.972 C 97.326 268.180,95.788 268.548,94.457 268.790 C 93.126 269.031,91.533 269.491,90.918 269.812 C 90.303 270.133,89.399 270.396,88.908 270.398 C 88.418 270.399,87.338 270.665,86.508 270.989 C 85.679 271.313,84.280 271.754,83.400 271.969 C 81.114 272.528,77.068 273.998,76.620 274.432 C 76.411 274.634,75.973 274.800,75.646 274.800 C 75.320 274.800,74.321 275.151,73.426 275.579 C 72.532 276.008,71.350 276.547,70.800 276.778 C 70.250 277.009,69.530 277.373,69.200 277.586 C 68.870 277.800,67.430 278.509,66.000 279.162 C 52.553 285.306,52.827 284.108,52.019 340.400 C 51.346 387.276,51.368 387.090,45.806 392.602 C 41.254 397.112,28.293 398.124,23.288 394.360 C 17.056 389.673,17.174 390.222,16.376 362.200 C 15.731 339.573,15.386 33.560,15.996 26.044 C 16.257 22.830,16.609 18.292,16.778 15.961 C 17.150 10.844,18.524 8.405,22.600 5.631 C 23.975 4.695,25.277 4.250,30.200 3.035 C 31.972 2.597,39.437 3.204,41.600 3.962 M68.800 65.149 C 68.470 65.347,67.570 65.636,66.800 65.792 C 63.257 66.511,59.667 69.084,55.875 73.622 C 54.873 74.822,53.633 79.029,53.406 82.000 C 52.337 96.014,52.001 113.139,52.001 153.600 C 52.002 212.521,52.524 222.694,55.750 226.699 C 62.316 234.853,71.499 237.431,79.559 233.383 C 81.506 232.405,87.200 226.794,87.200 225.854 C 87.200 225.598,87.565 224.708,88.010 223.876 C 90.462 219.302,90.394 221.066,90.397 161.993 C 90.399 130.374,90.235 105.633,89.999 101.993 C 89.778 98.587,89.428 92.020,89.222 87.400 C 88.725 76.316,88.264 74.718,84.440 70.840 C 80.199 66.540,71.664 63.434,68.800 65.149 M76.000 71.837 C 76.000 72.188,76.360 72.569,76.800 72.684 C 77.240 72.799,77.600 73.050,77.600 73.241 C 77.600 73.433,78.206 73.842,78.946 74.152 C 79.840 74.525,80.437 75.131,80.725 75.957 C 80.963 76.641,81.348 77.200,81.579 77.200 C 81.811 77.200,82.000 77.892,82.000 78.738 C 82.000 79.756,82.264 80.515,82.782 80.984 C 83.544 81.673,83.567 82.519,83.682 113.364 C 83.791 142.736,83.851 145.113,84.500 146.104 C 85.382 147.449,85.604 193.799,84.729 194.090 C 83.962 194.346,83.670 198.391,83.634 209.253 C 83.601 219.156,83.573 219.514,82.800 219.716 C 82.194 219.875,82.000 220.262,82.000 221.316 C 82.000 222.370,81.806 222.757,81.200 222.916 C 80.760 223.031,80.400 223.412,80.400 223.763 C 80.400 224.113,80.142 224.400,79.827 224.400 C 79.512 224.400,79.140 224.760,79.000 225.200 C 78.860 225.640,78.488 226.000,78.173 226.000 C 77.858 226.000,77.600 226.249,77.600 226.553 C 77.600 226.858,77.240 227.201,76.800 227.316 C 76.360 227.431,76.000 227.812,76.000 228.163 C 76.000 229.048,68.098 229.122,67.760 228.239 C 67.641 227.931,66.944 227.566,66.211 227.428 C 65.477 227.291,64.776 226.913,64.651 226.589 C 64.527 226.265,64.149 226.000,63.813 226.000 C 63.467 226.000,63.200 225.652,63.200 225.200 C 63.200 224.667,62.933 224.400,62.400 224.400 C 61.867 224.400,61.600 224.133,61.600 223.600 C 61.600 223.067,61.333 222.800,60.800 222.800 C 60.133 222.800,60.000 222.533,60.000 221.200 C 60.000 220.133,59.733 219.333,59.200 218.800 C 57.937 217.537,57.937 82.482,59.200 81.693 C 59.826 81.302,60.000 80.760,60.000 79.197 C 60.000 77.467,60.107 77.200,60.800 77.200 C 61.333 77.200,61.600 76.933,61.600 76.400 C 61.600 75.867,61.867 75.600,62.400 75.600 C 62.865 75.600,63.200 75.333,63.200 74.963 C 63.200 74.612,63.560 74.231,64.000 74.116 C 64.440 74.001,64.800 73.678,64.800 73.398 C 64.800 73.118,65.439 72.769,66.221 72.622 C 67.003 72.476,67.742 72.096,67.864 71.778 C 68.208 70.880,76.000 70.937,76.000 71.837 " stroke="none" fill="#853c87" fill-rule="evenodd"></path><path id="path1" d="M30.200 3.035 C 25.277 4.250,23.975 4.695,22.600 5.631 C 18.524 8.405,17.150 10.844,16.778 15.961 C 16.609 18.292,16.257 22.830,15.996 26.044 C 15.386 33.560,15.731 339.573,16.376 362.200 C 17.174 390.222,17.056 389.673,23.288 394.360 C 28.293 398.124,41.254 397.112,45.806 392.602 C 51.368 387.090,51.346 387.276,52.019 340.400 C 52.827 284.108,52.553 285.306,66.000 279.162 C 67.430 278.509,68.870 277.800,69.200 277.586 C 69.530 277.373,70.250 277.009,70.800 276.778 C 71.350 276.547,72.532 276.008,73.426 275.579 C 74.321 275.151,75.320 274.800,75.646 274.800 C 75.973 274.800,76.411 274.634,76.620 274.432 C 77.068 273.998,81.114 272.528,83.400 271.969 C 84.280 271.754,85.679 271.313,86.508 270.989 C 87.338 270.665,88.418 270.399,88.908 270.398 C 89.399 270.396,90.303 270.133,90.918 269.812 C 91.533 269.491,93.126 269.031,94.457 268.790 C 95.788 268.548,97.326 268.180,97.875 267.972 C 106.711 264.612,145.785 264.721,159.400 268.143 C 160.720 268.475,162.610 268.929,163.600 269.154 C 165.287 269.536,167.329 270.094,173.900 271.971 C 178.979 273.422,183.215 274.775,186.694 276.058 C 187.845 276.483,189.825 277.207,191.094 277.669 C 192.362 278.130,193.760 278.663,194.200 278.854 C 194.640 279.045,195.810 279.458,196.800 279.772 C 199.477 280.620,202.049 281.557,203.400 282.176 C 204.060 282.478,205.950 283.226,207.600 283.838 C 209.250 284.450,210.780 285.073,211.000 285.223 C 211.220 285.373,212.092 285.719,212.939 285.992 C 213.785 286.264,214.955 286.737,215.539 287.041 C 216.122 287.346,216.820 287.596,217.089 287.598 C 217.540 287.600,218.585 288.031,223.044 290.054 C 223.948 290.464,224.844 290.800,225.035 290.800 C 225.226 290.800,227.006 291.440,228.991 292.223 C 234.228 294.288,236.171 295.004,240.200 296.355 C 242.180 297.019,245.060 298.034,246.600 298.610 C 248.140 299.186,250.030 299.797,250.800 299.966 C 251.570 300.136,253.100 300.563,254.200 300.915 C 258.712 302.358,262.463 303.216,267.200 303.890 C 278.427 305.485,314.893 304.520,318.092 302.543 C 318.307 302.410,319.679 301.985,321.142 301.599 C 322.604 301.212,324.430 300.663,325.200 300.379 C 325.970 300.094,327.770 299.430,329.200 298.903 C 330.630 298.375,332.367 297.687,333.060 297.372 C 333.754 297.057,334.496 296.800,334.710 296.800 C 335.218 296.800,338.214 295.522,342.200 293.604 C 350.581 289.571,353.060 288.349,353.782 287.893 C 354.212 287.622,356.102 286.434,357.982 285.252 C 365.570 280.485,367.068 279.325,373.611 273.154 C 379.962 267.164,382.602 262.742,383.173 257.138 C 384.604 243.074,385.252 51.134,383.893 43.504 C 383.512 41.362,383.200 39.054,383.200 38.376 C 383.200 35.864,380.264 32.313,376.536 30.314 C 374.425 29.183,366.633 29.288,364.312 30.478 C 362.316 31.503,358.636 34.110,357.200 35.517 C 356.271 36.428,348.876 42.025,346.240 43.813 C 342.623 46.266,335.315 50.000,334.132 50.000 C 333.645 50.000,333.144 50.167,333.018 50.371 C 332.892 50.575,332.116 50.948,331.294 51.201 C 330.472 51.454,329.260 51.906,328.600 52.205 C 327.940 52.505,326.050 53.141,324.400 53.618 C 322.750 54.095,320.320 54.809,319.000 55.203 C 317.680 55.597,315.700 56.029,314.600 56.162 C 313.500 56.295,311.430 56.664,310.000 56.981 C 308.570 57.299,304.880 57.919,301.800 58.359 C 279.579 61.537,265.221 60.735,249.000 55.411 C 248.120 55.122,245.780 54.397,243.800 53.801 C 240.317 52.752,237.825 51.789,235.468 50.580 C 234.845 50.261,234.159 50.000,233.943 50.000 C 233.727 50.000,232.527 49.534,231.275 48.965 C 228.157 47.547,226.958 47.028,224.400 45.988 C 223.190 45.496,220.580 44.328,218.600 43.393 C 216.620 42.457,213.470 40.968,211.600 40.083 C 209.730 39.198,206.760 37.815,205.000 37.011 C 203.240 36.207,201.080 35.209,200.200 34.794 C 199.320 34.380,197.700 33.662,196.600 33.201 C 195.500 32.739,194.090 32.100,193.468 31.780 C 192.845 31.461,192.125 31.194,191.868 31.187 C 191.610 31.181,190.500 30.732,189.400 30.191 C 188.300 29.650,187.031 29.206,186.580 29.204 C 186.129 29.202,185.589 29.034,185.380 28.832 C 184.842 28.311,177.288 25.736,171.200 23.998 C 169.770 23.590,167.340 22.881,165.800 22.422 C 164.260 21.964,162.460 21.587,161.800 21.585 C 161.140 21.583,159.880 21.400,159.000 21.180 C 151.573 19.317,128.059 18.132,119.800 19.205 C 118.260 19.404,114.570 19.767,111.600 20.009 C 108.630 20.252,105.064 20.709,103.675 21.025 C 102.287 21.341,100.564 21.600,99.848 21.600 C 99.132 21.600,97.208 21.956,95.573 22.391 C 93.938 22.825,92.060 23.183,91.400 23.185 C 90.740 23.187,89.030 23.535,87.600 23.958 C 86.170 24.382,84.190 24.938,83.200 25.193 C 79.096 26.254,76.976 26.904,76.584 27.221 C 76.356 27.407,75.456 27.737,74.584 27.956 C 72.221 28.549,69.048 29.727,64.800 31.588 C 54.944 35.907,55.673 35.666,54.599 34.963 C 52.862 33.825,52.314 31.277,52.021 22.990 C 51.818 17.237,51.598 15.090,51.121 14.190 C 50.774 13.536,50.281 12.550,50.026 12.000 C 47.290 6.112,42.700 3.330,35.200 3.014 C 32.890 2.917,30.640 2.926,30.200 3.035 M76.000 65.715 C 85.529 68.355,88.594 73.381,89.222 87.400 C 89.428 92.020,89.778 98.587,89.999 101.993 C 90.235 105.633,90.399 130.374,90.397 161.993 C 90.394 221.066,90.462 219.302,88.010 223.876 C 87.565 224.708,87.200 225.598,87.200 225.854 C 87.200 226.794,81.506 232.405,79.559 233.383 C 71.499 237.431,62.316 234.853,55.750 226.699 C 52.524 222.694,52.002 212.521,52.001 153.600 C 52.001 113.139,52.337 96.014,53.406 82.000 C 53.633 79.029,54.873 74.822,55.875 73.622 C 59.667 69.084,63.257 66.511,66.800 65.792 C 67.570 65.636,68.470 65.347,68.800 65.149 C 69.599 64.671,73.272 64.960,76.000 65.715 " stroke="none" fill="#99b63e" fill-rule="evenodd"></path></g></svg>